# xmcd CD database file
# Copyright (C) 1993-1998 Ti Kan
# 
# Track frame offsets:
#     182
#     13697
#     27332
#     41862
#     60175
#     75100
#     89727
#     104397
#     120012
#     134137
# 
# Disc length: 1971 seconds
# 
# Revision: 1
# Processed by: cddbd v1.4b41PL1 Copyright (c) Steve Scherf et al.
# Submitted via: DiscPlay 4.0.4
# 
DISCID=7607b10a
DTITLE=T. Graham Brown - Greatist Hits
DYEAR=1900
DGENRE=
TTITLE0=I Tell It Like It Used To Be
TTITLE1=I Wish That I Could Hurt That Way
TTITLE2=Hell And High Water
TTITLE3=Don't Go To Strangers
TTITLE4=Darlene
TTITLE5=She Couldn't Love Me Anymore
TTITLE6=Don't Go Out
TTITLE7=Last Resort
TTITLE8=If You Could Only See Me Now
TTITLE9=Come As You Are
EXTD=
EXTT0=
EXTT1=
EXTT2=
EXTT3=
EXTT4=
EXTT5=
EXTT6=
EXTT7=
EXTT8=
EXTT9=
PLAYORDER=
